REM DIRINDEX 1\6,1\2\7,1\2\8,1\2\9,1\3\10,1\3\11,1\4\12,1\4\13,1\4\14,1\5\15,1\5\16,1\5\17
REM DIRNAME cjc040,folder01,folder02,folder03,folder04,folder05,folder06,folder07,folder08,folder09,folder10,folder11,folder12,folder13,folder14,folder15,folder16
TITLE ""
FILE "P2Q_t_0893-0910.mp3" MP3
  TRACK 01 AUDIO
    TITLE "10:cjc040_3441"
    INDEX 01 00:00:00
  TRACK 02 AUDIO
    TITLE "0:"
    INDEX 01 00:01:17
  TRACK 03 AUDIO
    TITLE "11:cjc040_3442"
    INDEX 01 00:01:73
  TRACK 04 AUDIO
    TITLE "0:"
    INDEX 01 00:03:15
  TRACK 05 AUDIO
    TITLE "10:cjc040_3443"
    INDEX 01 00:03:70
  TRACK 06 AUDIO
    TITLE "0:"
    INDEX 01 00:05:14
  TRACK 07 AUDIO
    TITLE "11:cjc040_3444"
    INDEX 01 00:05:73
  TRACK 08 AUDIO
    TITLE "0:"
    INDEX 01 00:08:19
  TRACK 09 AUDIO
    TITLE "10:cjc040_3445"
    INDEX 01 00:08:72
  TRACK 10 AUDIO
    TITLE "0:"
    INDEX 01 00:10:21
  TRACK 11 AUDIO
    TITLE "11:cjc040_3446"
    INDEX 01 00:10:72
  TRACK 12 AUDIO
    TITLE "0:"
    INDEX 01 00:13:08
  TRACK 13 AUDIO
    TITLE "10:cjc040_3447"
    INDEX 01 00:13:55
  TRACK 14 AUDIO
    TITLE "0:"
    INDEX 01 00:15:11
  TRACK 15 AUDIO
    TITLE "11:cjc040_3448"
    INDEX 01 00:15:66
  TRACK 16 AUDIO
    TITLE "0:"
    INDEX 01 00:17:63
  TRACK 17 AUDIO
    TITLE "10:cjc040_3449"
    INDEX 01 00:18:41
  TRACK 18 AUDIO
    TITLE "0:"
    INDEX 01 00:19:69
  TRACK 19 AUDIO
    TITLE "11:cjc040_3450"
    INDEX 01 00:20:43
  TRACK 20 AUDIO
    TITLE "0:"
    INDEX 01 00:23:59
  TRACK 21 AUDIO
    TITLE "10:cjc040_3451"
    INDEX 01 00:24:37
  TRACK 22 AUDIO
    TITLE "0:"
    INDEX 01 00:25:56
  TRACK 23 AUDIO
    TITLE "11:cjc040_3452"
    INDEX 01 00:26:30
  TRACK 24 AUDIO
    TITLE "0:"
    INDEX 01 00:29:09
  TRACK 25 AUDIO
    TITLE "10:cjc040_3453"
    INDEX 01 00:29:58
  TRACK 26 AUDIO
    TITLE "0:"
    INDEX 01 00:30:67
  TRACK 27 AUDIO
    TITLE "11:cjc040_3454"
    INDEX 01 00:31:45
  TRACK 28 AUDIO
    TITLE "0:"
    INDEX 01 00:33:34
  TRACK 29 AUDIO
    TITLE "10:cjc040_3455"
    INDEX 01 00:34:14
  TRACK 30 AUDIO
    TITLE "0:"
    INDEX 01 00:35:31
  TRACK 31 AUDIO
    TITLE "11:cjc040_3456"
    INDEX 01 00:36:13
  TRACK 32 AUDIO
    TITLE "0:"
    INDEX 01 00:37:20
  TRACK 33 AUDIO
    TITLE "10:cjc040_3457"
    INDEX 01 00:37:71
  TRACK 34 AUDIO
    TITLE "0:"
    INDEX 01 00:39:09
  TRACK 35 AUDIO
    TITLE "11:cjc040_3458"
    INDEX 01 00:39:62
  TRACK 36 AUDIO
    TITLE "0:"
    INDEX 01 00:40:73
  TRACK 37 AUDIO
    TITLE "10:cjc040_3459"
    INDEX 01 00:41:51
  TRACK 38 AUDIO
    TITLE "0:"
    INDEX 01 00:42:70
  TRACK 39 AUDIO
    TITLE "11:cjc040_3460"
    INDEX 01 00:43:50
  TRACK 40 AUDIO
    TITLE "0:"
    INDEX 01 00:46:74
  TRACK 41 AUDIO
    TITLE "10:cjc040_3461"
    INDEX 01 00:47:48
  TRACK 42 AUDIO
    TITLE "0:"
    INDEX 01 00:49:16
  TRACK 43 AUDIO
    TITLE "11:cjc040_3462"
    INDEX 01 00:50:01
  TRACK 44 AUDIO
    TITLE "0:"
    INDEX 01 00:53:19
  TRACK 45 AUDIO
    TITLE "10:cjc040_3463"
    INDEX 01 00:53:64
  TRACK 46 AUDIO
    TITLE "0:"
    INDEX 01 00:55:10
  TRACK 47 AUDIO
    TITLE "11:cjc040_3464"
    INDEX 01 00:55:61
  TRACK 48 AUDIO
    TITLE "0:"
    INDEX 01 00:56:72
  TRACK 49 AUDIO
    TITLE "10:cjc040_3465"
    INDEX 01 00:57:46
  TRACK 50 AUDIO
    TITLE "0:"
    INDEX 01 00:59:04
  TRACK 51 AUDIO
    TITLE "11:cjc040_3466"
    INDEX 01 00:59:51
  TRACK 52 AUDIO
    TITLE "0:"
    INDEX 01 01:01:66
  TRACK 53 AUDIO
    TITLE "10:cjc040_3467"
    INDEX 01 01:02:42
  TRACK 54 AUDIO
    TITLE "0:"
    INDEX 01 01:03:61
  TRACK 55 AUDIO
    TITLE "11:cjc040_3468"
    INDEX 01 01:04:48
  TRACK 56 AUDIO
    TITLE "0:"
    INDEX 01 01:08:25
  TRACK 57 AUDIO
    TITLE "10:cjc040_3469"
    INDEX 01 01:09:03
  TRACK 58 AUDIO
    TITLE "0:"
    INDEX 01 01:10:24
  TRACK 59 AUDIO
    TITLE "11:cjc040_3470"
    INDEX 01 01:11:02
  TRACK 60 AUDIO
    TITLE "0:"
    INDEX 01 01:11:70
  TRACK 61 AUDIO
    TITLE "10:cjc040_3471"
    INDEX 01 01:12:54
  TRACK 62 AUDIO
    TITLE "0:"
    INDEX 01 01:13:73
  TRACK 63 AUDIO
    TITLE "11:cjc040_3472"
    INDEX 01 01:14:53
  TRACK 64 AUDIO
    TITLE "0:"
    INDEX 01 01:16:69
  TRACK 65 AUDIO
    TITLE "10:cjc040_3473"
    INDEX 01 01:17:43
  TRACK 66 AUDIO
    TITLE "0:"
    INDEX 01 01:18:62
  TRACK 67 AUDIO
    TITLE "11:cjc040_3474"
    INDEX 01 01:19:36
  TRACK 68 AUDIO
    TITLE "0:"
    INDEX 01 01:20:63
  TRACK 69 AUDIO
    TITLE "10:cjc040_3475"
    INDEX 01 01:21:37
  TRACK 70 AUDIO
    TITLE "0:"
    INDEX 01 01:23:03
  TRACK 71 AUDIO
    TITLE "11:cjc040_3476"
    INDEX 01 01:23:54
  TRACK 72 AUDIO
    TITLE "0:"
    INDEX 01 01:24:43
